<mxfile host="app.diagrams.net" agent="Mozilla/5.0 (Windows NT 10.0; Win64; x64) AppleWebKit/537.36 (KHTML, like Gecko) Chrome/132.0.0.0 Safari/537.36" version="26.0.14">
  <diagram name="Página-1" id="9MNCt2WXrnYGEbKYfRJT">
    <mxGraphModel dx="1050" dy="569" grid="1" gridSize="10" guides="1" tooltips="1" connect="1" arrows="1" fold="1" page="1" pageScale="1" pageWidth="827" pageHeight="1169" math="0" shadow="0">
      <root>
        <mxCell id="0" />
        <mxCell id="1" parent="0" />
        <mxCell id="LDqcpril_fbIM4nPW1xk-3" value="FUNCTIONAL VIEW" style="swimlane;whiteSpace=wrap;html=1;fillColor=#FFF2CC;strokeColor=#d6b656;" vertex="1" parent="1">
          <mxGeometry x="40" y="70" width="780" height="600" as="geometry" />
        </mxCell>
        <mxCell id="LDqcpril_fbIM4nPW1xk-11" value="&#xa;&lt;b id=&quot;docs-internal-guid-46ae1bfb-7fff-1c01-dad7-981f20cc9a1b&quot; style=&quot;font-weight:normal;&quot;&gt;&lt;span style=&quot;font-size:11pt;font-family:Arial,sans-serif;color:#000000;background-color:transparent;font-weight:400;font-style:normal;font-variant:normal;text-decoration:none;vertical-align:baseline;white-space:pre;white-space:pre-wrap;&quot;&gt;api manager,enumerations,exceptions,object models:autentication objects,specification&amp;nbsp; objects,miscellaneous objects, special objects;request manager: data requests,autorization requests&lt;/span&gt;&lt;/b&gt;&#xa;&#xa;" style="text;html=1;align=center;verticalAlign=middle;whiteSpace=wrap;rounded=0;" vertex="1" parent="LDqcpril_fbIM4nPW1xk-3">
          <mxGeometry x="706" y="10" width="60" height="30" as="geometry" />
        </mxCell>
        <mxCell id="LDqcpril_fbIM4nPW1xk-17" value="«&lt;b&gt;Enumerations&lt;/b&gt;»&lt;div&gt;&lt;br&gt;&lt;b&gt;Component&lt;/b&gt;&lt;/div&gt;" style="html=1;dropTarget=0;whiteSpace=wrap;" vertex="1" parent="LDqcpril_fbIM4nPW1xk-3">
          <mxGeometry x="440" y="120" width="180" height="60" as="geometry" />
        </mxCell>
        <mxCell id="LDqcpril_fbIM4nPW1xk-18" value="" style="shape=module;jettyWidth=8;jettyHeight=4;" vertex="1" parent="LDqcpril_fbIM4nPW1xk-17">
          <mxGeometry x="1" width="20" height="20" relative="1" as="geometry">
            <mxPoint x="-27" y="7" as="offset" />
          </mxGeometry>
        </mxCell>
        <mxCell id="LDqcpril_fbIM4nPW1xk-24" value="«&lt;b&gt;ObjectModels&lt;/b&gt;»&lt;div&gt;&lt;br&gt;&lt;b&gt;Component&lt;/b&gt;&lt;/div&gt;" style="html=1;dropTarget=0;whiteSpace=wrap;verticalAlign=top;" vertex="1" parent="LDqcpril_fbIM4nPW1xk-3">
          <mxGeometry x="280" y="290" width="460" height="260" as="geometry" />
        </mxCell>
        <mxCell id="LDqcpril_fbIM4nPW1xk-25" value="" style="shape=module;jettyWidth=8;jettyHeight=4;" vertex="1" parent="LDqcpril_fbIM4nPW1xk-24">
          <mxGeometry x="1" width="20" height="20" relative="1" as="geometry">
            <mxPoint x="-27" y="7" as="offset" />
          </mxGeometry>
        </mxCell>
        <mxCell id="LDqcpril_fbIM4nPW1xk-26" value="«&lt;b&gt;AutenticationObjects&lt;/b&gt;»&lt;div&gt;&lt;br&gt;&lt;b&gt;Component&lt;/b&gt;&lt;/div&gt;" style="html=1;dropTarget=0;whiteSpace=wrap;" vertex="1" parent="LDqcpril_fbIM4nPW1xk-3">
          <mxGeometry x="300" y="350" width="194" height="60" as="geometry" />
        </mxCell>
        <mxCell id="LDqcpril_fbIM4nPW1xk-27" value="" style="shape=module;jettyWidth=8;jettyHeight=4;" vertex="1" parent="LDqcpril_fbIM4nPW1xk-26">
          <mxGeometry x="1" width="20" height="20" relative="1" as="geometry">
            <mxPoint x="-27" y="7" as="offset" />
          </mxGeometry>
        </mxCell>
        <mxCell id="LDqcpril_fbIM4nPW1xk-22" value="«&lt;b&gt;Exceptions&lt;/b&gt;»&lt;div&gt;&lt;br&gt;&lt;b&gt;Component&lt;/b&gt;&lt;/div&gt;" style="html=1;dropTarget=0;whiteSpace=wrap;" vertex="1" parent="LDqcpril_fbIM4nPW1xk-3">
          <mxGeometry x="56" y="240" width="180" height="60" as="geometry" />
        </mxCell>
        <mxCell id="LDqcpril_fbIM4nPW1xk-23" value="" style="shape=module;jettyWidth=8;jettyHeight=4;" vertex="1" parent="LDqcpril_fbIM4nPW1xk-22">
          <mxGeometry x="1" width="20" height="20" relative="1" as="geometry">
            <mxPoint x="-27" y="7" as="offset" />
          </mxGeometry>
        </mxCell>
        <mxCell id="LDqcpril_fbIM4nPW1xk-20" value="«&lt;b&gt;ApiManager&lt;/b&gt;»&lt;div&gt;&lt;br&gt;&lt;b&gt;Component&lt;/b&gt;&lt;/div&gt;" style="html=1;dropTarget=0;whiteSpace=wrap;" vertex="1" parent="LDqcpril_fbIM4nPW1xk-3">
          <mxGeometry x="120" y="110" width="180" height="60" as="geometry" />
        </mxCell>
        <mxCell id="LDqcpril_fbIM4nPW1xk-21" value="" style="shape=module;jettyWidth=8;jettyHeight=4;" vertex="1" parent="LDqcpril_fbIM4nPW1xk-20">
          <mxGeometry x="1" width="20" height="20" relative="1" as="geometry">
            <mxPoint x="-27" y="7" as="offset" />
          </mxGeometry>
        </mxCell>
        <mxCell id="LDqcpril_fbIM4nPW1xk-31" value="«&lt;b&gt;SpecificationObjects&lt;/b&gt;»&lt;div&gt;&lt;br&gt;&lt;b&gt;Component&lt;/b&gt;&lt;/div&gt;" style="html=1;dropTarget=0;whiteSpace=wrap;" vertex="1" parent="LDqcpril_fbIM4nPW1xk-3">
          <mxGeometry x="530" y="350" width="194" height="60" as="geometry" />
        </mxCell>
        <mxCell id="LDqcpril_fbIM4nPW1xk-32" value="" style="shape=module;jettyWidth=8;jettyHeight=4;" vertex="1" parent="LDqcpril_fbIM4nPW1xk-31">
          <mxGeometry x="1" width="20" height="20" relative="1" as="geometry">
            <mxPoint x="-27" y="7" as="offset" />
          </mxGeometry>
        </mxCell>
        <mxCell id="LDqcpril_fbIM4nPW1xk-33" value="«&lt;b&gt;SpecificationObjects&lt;/b&gt;»&lt;div&gt;&lt;br&gt;&lt;b&gt;Component&lt;/b&gt;&lt;/div&gt;" style="html=1;dropTarget=0;whiteSpace=wrap;" vertex="1" parent="LDqcpril_fbIM4nPW1xk-3">
          <mxGeometry x="520" y="460" width="194" height="60" as="geometry" />
        </mxCell>
        <mxCell id="LDqcpril_fbIM4nPW1xk-34" value="" style="shape=module;jettyWidth=8;jettyHeight=4;" vertex="1" parent="LDqcpril_fbIM4nPW1xk-33">
          <mxGeometry x="1" width="20" height="20" relative="1" as="geometry">
            <mxPoint x="-27" y="7" as="offset" />
          </mxGeometry>
        </mxCell>
        <mxCell id="LDqcpril_fbIM4nPW1xk-35" value="«&lt;b&gt;SpecificationObjects&lt;/b&gt;»&lt;div&gt;&lt;br&gt;&lt;b&gt;Component&lt;/b&gt;&lt;/div&gt;" style="html=1;dropTarget=0;whiteSpace=wrap;" vertex="1" parent="LDqcpril_fbIM4nPW1xk-3">
          <mxGeometry x="300" y="450" width="194" height="60" as="geometry" />
        </mxCell>
        <mxCell id="LDqcpril_fbIM4nPW1xk-36" value="" style="shape=module;jettyWidth=8;jettyHeight=4;" vertex="1" parent="LDqcpril_fbIM4nPW1xk-35">
          <mxGeometry x="1" width="20" height="20" relative="1" as="geometry">
            <mxPoint x="-27" y="7" as="offset" />
          </mxGeometry>
        </mxCell>
        <mxCell id="LDqcpril_fbIM4nPW1xk-38" value="&amp;laquo;Annotation&amp;raquo;&lt;br/&gt;&lt;b&gt;Component&lt;/b&gt;" style="html=1;dropTarget=0;whiteSpace=wrap;" vertex="1" parent="LDqcpril_fbIM4nPW1xk-3">
          <mxGeometry x="-40" y="360" width="180" height="90" as="geometry" />
        </mxCell>
        <mxCell id="LDqcpril_fbIM4nPW1xk-39" value="" style="shape=module;jettyWidth=8;jettyHeight=4;" vertex="1" parent="LDqcpril_fbIM4nPW1xk-38">
          <mxGeometry x="1" width="20" height="20" relative="1" as="geometry">
            <mxPoint x="-27" y="7" as="offset" />
          </mxGeometry>
        </mxCell>
        <mxCell id="LDqcpril_fbIM4nPW1xk-41" style="edgeStyle=orthogonalEdgeStyle;rounded=0;orthogonalLoop=1;jettySize=auto;html=1;entryX=0;entryY=0.5;entryDx=0;entryDy=0;" edge="1" parent="LDqcpril_fbIM4nPW1xk-3" source="LDqcpril_fbIM4nPW1xk-40" target="LDqcpril_fbIM4nPW1xk-24">
          <mxGeometry relative="1" as="geometry" />
        </mxCell>
        <mxCell id="LDqcpril_fbIM4nPW1xk-40" value="" style="ellipse;html=1;shape=endState;fillColor=#000000;strokeColor=#ff0000;" vertex="1" parent="LDqcpril_fbIM4nPW1xk-3">
          <mxGeometry x="150" y="410" width="30" height="30" as="geometry" />
        </mxCell>
        <mxCell id="LDqcpril_fbIM4nPW1xk-42" value="iModelObjectc" style="text;align=center;fontStyle=1;verticalAlign=middle;spacingLeft=3;spacingRight=3;strokeColor=none;rotatable=0;points=[[0,0.5],[1,0.5]];portConstraint=eastwest;html=1;" vertex="1" parent="LDqcpril_fbIM4nPW1xk-3">
          <mxGeometry x="125" y="440" width="80" height="26" as="geometry" />
        </mxCell>
      </root>
    </mxGraphModel>
  </diagram>
</mxfile>
